<svg width="100%" height="100%" style="background: #000;" viewBox="0 0 312 312" stroke="#feb237" xmlns="http://www.w3.org/2000/svg">
  <path d="M177.5 103C181.5 103 187 106.5 187 112V118C187 124.5 186.5 124 190 124H197.5C202.5 124 204 126.5 204 130V135C204 139 202 140 200.5 140H196.5C193 131 182.5 130 178.5 140H150C150 140 146.75 140 149 135.5C150.796 131.909 159.917 113.348 163.526 106C164.755 103.5 166.5 103 169.5 103L177.5 103Z" />
  <path d="M159 124L166.5 108H177.5C180.5 108 182.5 109 182.5 112V124H159Z" />
  <path d="M194 141.5C194 145.09 191.09 148 187.5 148C183.91 148 181 145.09 181 141.5C181 137.91 183.91 135 187.5 135C191.09 135 194 137.91 194 141.5Z" />
  <path d="M124 106.5C124 105.119 125.119 104 126.5 104H152.5C153.881 104 155 105.119 155 106.5V106.5C155 107.881 153.881 109 152.5 109H126.5C125.119 109 124 107.881 124 106.5V106.5Z" />
  <path d="M108 119C108 117.343 109.343 116 111 116H140C141.657 116 143 117.343 143 119V119C143 120.657 141.657 122 140 122H111C109.343 122 108 120.657 108 119V119Z" />
  <path d="M122 131C122 129.343 123.343 128 125 128H141C142.657 128 144 129.343 144 131V131C144 132.657 142.657 134 141 134H125C123.343 134 122 132.657 122 131V131Z" />
  <path d="M41.0321 169.5C42.0121 169.5 42.9221 169.68 43.7621 170.04C44.6221 170.4 45.3721 170.89 46.0121 171.51C46.6521 172.13 47.1521 172.86 47.5121 173.7C47.8921 174.54 48.0821 175.43 48.0821 176.37C48.0821 177.31 47.8921 178.2 47.5121 179.04C47.1521 179.88 46.6521 180.61 46.0121 181.23C45.3721 181.85 44.6221 182.34 43.7621 182.7C42.9221 183.06 42.0121 183.24 41.0321 183.24H35.7821V189H32.4821V179.94H41.0321C41.5521 179.94 42.0321 179.85 42.4721 179.67C42.9321 179.47 43.3321 179.21 43.6721 178.89C44.0121 178.57 44.2821 178.19 44.4821 177.75C44.6821 177.31 44.7821 176.85 44.7821 176.37C44.7821 175.87 44.6821 175.41 44.4821 174.99C44.2821 174.55 44.0121 174.17 43.6721 173.85C43.3321 173.53 42.9321 173.28 42.4721 173.1C42.0321 172.9 41.5521 172.8 41.0321 172.8H32.4821V169.5H41.0321Z" />
  <path d="M66.1678 189L59.4778 173.55L52.7578 189H49.1578L57.6178 169.5H61.3078L69.7678 189H66.1678Z" />
  <path d="M72.8358 189V185.7H80.8458C81.1258 185.7 81.4058 185.66 81.6858 185.58C81.9858 185.5 82.2458 185.38 82.4658 185.22C82.7058 185.04 82.8958 184.82 83.0358 184.56C83.1758 184.3 83.2458 183.99 83.2458 183.63C83.2458 183.31 83.1658 183.03 83.0058 182.79C82.8658 182.55 82.6258 182.33 82.2858 182.13C81.9658 181.93 81.5358 181.74 80.9958 181.56C80.4558 181.36 79.7858 181.15 78.9858 180.93C78.2658 180.73 77.5058 180.5 76.7058 180.24C75.9058 179.96 75.1658 179.6 74.4858 179.16C73.8258 178.72 73.2758 178.16 72.8358 177.48C72.3958 176.78 72.1758 175.91 72.1758 174.87C72.1758 174.11 72.3158 173.4 72.5958 172.74C72.8958 172.08 73.2958 171.51 73.7958 171.03C74.3158 170.55 74.9158 170.18 75.5958 169.92C76.2958 169.64 77.0558 169.5 77.8758 169.5H85.8858V172.8H77.8758C77.5758 172.8 77.2858 172.84 77.0058 172.92C76.7258 173 76.4658 173.13 76.2258 173.31C76.0058 173.47 75.8258 173.68 75.6858 173.94C75.5458 174.2 75.4758 174.51 75.4758 174.87C75.4758 175.23 75.5458 175.54 75.6858 175.8C75.8458 176.04 76.0958 176.27 76.4358 176.49C76.7758 176.71 77.2258 176.92 77.7858 177.12C78.3458 177.3 79.0358 177.51 79.8558 177.75C80.5558 177.95 81.2958 178.18 82.0758 178.44C82.8758 178.7 83.6058 179.05 84.2658 179.49C84.9258 179.91 85.4658 180.46 85.8858 181.14C86.3258 181.8 86.5458 182.63 86.5458 183.63C86.5458 184.39 86.3958 185.1 86.0958 185.76C85.8158 186.42 85.4158 186.99 84.8958 187.47C84.3958 187.95 83.7958 188.33 83.0958 188.61C82.3958 188.87 81.6458 189 80.8458 189H72.8358Z" />
  <path d="M99.713 177.6C100.493 177.6 101.233 177.75 101.933 178.05C102.633 178.35 103.233 178.76 103.733 179.28C104.253 179.78 104.663 180.38 104.963 181.08C105.263 181.78 105.413 182.52 105.413 183.3C105.413 184.08 105.263 184.82 104.963 185.52C104.663 186.22 104.253 186.83 103.733 187.35C103.233 187.85 102.633 188.25 101.933 188.55C101.233 188.85 100.493 189 99.713 189H91.703V185.7H99.713C100.373 185.7 100.933 185.47 101.393 185.01C101.873 184.53 102.113 183.96 102.113 183.3C102.113 182.64 101.873 182.08 101.393 181.62C100.933 181.14 100.373 180.9 99.713 180.9H96.743C95.963 180.9 95.223 180.75 94.523 180.45C93.823 180.15 93.213 179.75 92.693 179.25C92.193 178.73 91.793 178.12 91.493 177.42C91.193 176.72 91.043 175.98 91.043 175.2C91.043 174.42 91.193 173.68 91.493 172.98C91.793 172.28 92.193 171.68 92.693 171.18C93.213 170.66 93.823 170.25 94.523 169.95C95.223 169.65 95.963 169.5 96.743 169.5H104.753V172.8H96.743C96.083 172.8 95.513 173.04 95.033 173.52C94.573 173.98 94.343 174.54 94.343 175.2C94.343 175.86 94.573 176.43 95.033 176.91C95.513 177.37 96.083 177.6 96.743 177.6H99.713Z" />
  <path d="M113.51 189H110.21V169.5H113.51V189Z" />
  <path d="M132.298 169.5H135.598V189H132.298V183.9L121.918 173.49V189H118.618V169.5H122.608L132.298 179.25V169.5Z" />
  <path d="M150.008 189.33C148.588 189.33 147.248 189.07 145.988 188.55C144.728 188.01 143.628 187.29 142.688 186.39C141.748 185.47 141.008 184.4 140.468 183.18C139.928 181.94 139.658 180.63 139.658 179.25C139.658 177.87 139.928 176.57 140.468 175.35C141.008 174.11 141.748 173.04 142.688 172.14C143.628 171.22 144.728 170.5 145.988 169.98C147.248 169.44 148.588 169.17 150.008 169.17C151.508 169.17 152.928 169.47 154.268 170.07C155.628 170.67 156.798 171.51 157.778 172.59L155.348 174.81C154.668 174.05 153.858 173.47 152.918 173.07C151.998 172.67 151.028 172.47 150.008 172.47C149.048 172.47 148.138 172.65 147.278 173.01C146.418 173.35 145.668 173.83 145.028 174.45C144.388 175.07 143.878 175.79 143.498 176.61C143.138 177.43 142.958 178.31 142.958 179.25C142.958 180.19 143.138 181.07 143.498 181.89C143.878 182.71 144.388 183.43 145.028 184.05C145.668 184.67 146.418 185.16 147.278 185.52C148.138 185.86 149.048 186.03 150.008 186.03C151.008 186.03 151.948 185.85 152.828 185.49C153.708 185.11 154.488 184.58 155.168 183.9V180.9H150.938V177.6H158.468V185.13L158.078 185.58C157.078 186.78 155.878 187.71 154.478 188.37C153.078 189.01 151.588 189.33 150.008 189.33Z" />
  <path d="M185.194 189.33C183.774 189.33 182.434 189.07 181.174 188.55C179.914 188.01 178.814 187.29 177.874 186.39C176.934 185.47 176.194 184.4 175.654 183.18C175.114 181.94 174.844 180.63 174.844 179.25C174.844 177.87 175.114 176.57 175.654 175.35C176.194 174.11 176.934 173.04 177.874 172.14C178.814 171.22 179.914 170.5 181.174 169.98C182.434 169.44 183.774 169.17 185.194 169.17C186.694 169.17 188.114 169.47 189.454 170.07C190.814 170.67 191.984 171.51 192.964 172.59L190.534 174.81C189.854 174.05 189.044 173.47 188.104 173.07C187.184 172.67 186.214 172.47 185.194 172.47C184.234 172.47 183.324 172.65 182.464 173.01C181.604 173.35 180.854 173.83 180.214 174.45C179.574 175.07 179.064 175.79 178.684 176.61C178.324 177.43 178.144 178.31 178.144 179.25C178.144 180.19 178.324 181.07 178.684 181.89C179.064 182.71 179.574 183.43 180.214 184.05C180.854 184.67 181.604 185.16 182.464 185.52C183.324 185.86 184.234 186.03 185.194 186.03C186.274 186.03 187.294 185.81 188.254 185.37C189.234 184.93 190.064 184.3 190.744 183.48L193.264 185.58C192.264 186.78 191.064 187.71 189.664 188.37C188.264 189.01 186.774 189.33 185.194 189.33Z" />
  <path d="M212.213 189L205.523 173.55L198.803 189H195.203L203.663 169.5H207.353L215.813 189H212.213Z" />
  <path d="M233.431 189H229.531L225.841 183.24H221.821V189H220.831H218.521V169.5H227.071C228.051 169.5 228.961 169.68 229.801 170.04C230.661 170.4 231.411 170.89 232.051 171.51C232.691 172.13 233.191 172.86 233.551 173.7C233.931 174.54 234.121 175.43 234.121 176.37C234.121 177.11 234.001 177.82 233.761 178.5C233.541 179.18 233.221 179.8 232.801 180.36C232.401 180.92 231.911 181.41 231.331 181.83C230.771 182.25 230.151 182.58 229.471 182.82L233.431 189ZM227.071 179.94C227.591 179.94 228.071 179.85 228.511 179.67C228.971 179.47 229.371 179.21 229.711 178.89C230.051 178.57 230.321 178.19 230.521 177.75C230.721 177.31 230.821 176.85 230.821 176.37C230.821 175.87 230.721 175.41 230.521 174.99C230.321 174.55 230.051 174.17 229.711 173.85C229.371 173.53 228.971 173.28 228.511 173.1C228.071 172.9 227.591 172.8 227.071 172.8H221.821V179.94H227.071Z" />
  <path d="M247.479 189.33C246.059 189.33 244.719 189.07 243.459 188.55C242.199 188.01 241.099 187.29 240.159 186.39C239.219 185.47 238.479 184.4 237.939 183.18C237.399 181.94 237.129 180.63 237.129 179.25C237.129 177.87 237.399 176.57 237.939 175.35C238.479 174.11 239.219 173.04 240.159 172.14C241.099 171.22 242.199 170.5 243.459 169.98C244.719 169.44 246.059 169.17 247.479 169.17C248.979 169.17 250.399 169.47 251.739 170.07C253.099 170.67 254.269 171.51 255.249 172.59L252.819 174.81C252.139 174.05 251.329 173.47 250.389 173.07C249.469 172.67 248.499 172.47 247.479 172.47C246.519 172.47 245.609 172.65 244.749 173.01C243.889 173.35 243.139 173.83 242.499 174.45C241.859 175.07 241.349 175.79 240.969 176.61C240.609 177.43 240.429 178.31 240.429 179.25C240.429 180.19 240.609 181.07 240.969 181.89C241.349 182.71 241.859 183.43 242.499 184.05C243.139 184.67 243.889 185.16 244.749 185.52C245.609 185.86 246.519 186.03 247.479 186.03C248.479 186.03 249.419 185.85 250.299 185.49C251.179 185.11 251.959 184.58 252.639 183.9V179.25H255.939V185.13L255.549 185.58C254.549 186.78 253.349 187.71 251.949 188.37C250.549 189.01 249.059 189.33 247.479 189.33Z" />
  <path d="M270.038 189.33C268.618 189.33 267.278 189.07 266.018 188.55C264.758 188.01 263.658 187.29 262.718 186.39C261.778 185.47 261.038 184.4 260.498 183.18C259.958 181.94 259.688 180.63 259.688 179.25C259.688 177.87 259.958 176.57 260.498 175.35C261.038 174.11 261.778 173.04 262.718 172.14C263.658 171.22 264.758 170.5 266.018 169.98C267.278 169.44 268.618 169.17 270.038 169.17C271.478 169.17 272.828 169.44 274.088 169.98C275.348 170.5 276.448 171.22 277.388 172.14C278.328 173.04 279.068 174.11 279.608 175.35C280.148 176.57 280.418 177.87 280.418 179.25C280.418 180.63 280.148 181.94 279.608 183.18C279.068 184.4 278.328 185.47 277.388 186.39C276.448 187.29 275.348 188.01 274.088 188.55C272.828 189.07 271.478 189.33 270.038 189.33ZM270.038 172.47C269.078 172.47 268.168 172.65 267.308 173.01C266.448 173.35 265.698 173.83 265.058 174.45C264.418 175.07 263.908 175.79 263.528 176.61C263.168 177.43 262.988 178.31 262.988 179.25C262.988 180.19 263.168 181.07 263.528 181.89C263.908 182.71 264.418 183.43 265.058 184.05C265.698 184.67 266.448 185.16 267.308 185.52C268.168 185.86 269.078 186.03 270.038 186.03C271.018 186.03 271.938 185.86 272.798 185.52C273.658 185.16 274.408 184.67 275.048 184.05C275.688 183.43 276.188 182.71 276.548 181.89C276.928 181.07 277.118 180.19 277.118 179.25C277.118 178.31 276.928 177.43 276.548 176.61C276.188 175.79 275.688 175.07 275.048 174.45C274.408 173.83 273.658 173.35 272.798 173.01C271.938 172.65 271.018 172.47 270.038 172.47Z" />
</svg>